<mxfile host="app.diagrams.net" modified="2023-11-19T08:21:15.558Z" agent="Mozilla/5.0 (Windows NT 10.0; Win64; x64) AppleWebKit/537.36 (KHTML, like Gecko) Chrome/119.0.0.0 Safari/537.36 Edg/119.0.0.0" etag="UTEc2Qju12rWmBFEl89D" version="22.1.3" type="github">
  <diagram name="Page-1" id="b520641d-4fe3-3701-9064-5fc419738815">
    <mxGraphModel dx="1158" dy="1444" grid="1" gridSize="10" guides="1" tooltips="1" connect="1" arrows="1" fold="1" page="1" pageScale="1" pageWidth="1100" pageHeight="850" background="none" math="0" shadow="0">
      <root>
        <mxCell id="0" />
        <mxCell id="1" parent="0" />
        <mxCell id="XSnT0I2E9s_Pdc4EKmwq-44" style="edgeStyle=orthogonalEdgeStyle;orthogonalLoop=1;jettySize=auto;html=1;exitX=0.88;exitY=0.002;exitDx=0;exitDy=0;exitPerimeter=0;curved=1;" edge="1" parent="1" source="DQgmJm5E7RuLA71w_BIT-6">
          <mxGeometry relative="1" as="geometry">
            <mxPoint x="865" y="97" as="targetPoint" />
            <Array as="points">
              <mxPoint x="684" y="60" />
              <mxPoint x="865" y="60" />
              <mxPoint x="865" y="97" />
            </Array>
          </mxGeometry>
        </mxCell>
        <mxCell id="XSnT0I2E9s_Pdc4EKmwq-45" value="&amp;nbsp; 潛在危險字眼的&amp;nbsp;&amp;nbsp;&lt;br style=&quot;border-color: var(--border-color);&quot;&gt;對話用戶的詳細資料" style="edgeLabel;html=1;align=center;verticalAlign=middle;resizable=0;points=[];" vertex="1" connectable="0" parent="XSnT0I2E9s_Pdc4EKmwq-44">
          <mxGeometry x="-0.0883" y="1" relative="1" as="geometry">
            <mxPoint as="offset" />
          </mxGeometry>
        </mxCell>
        <mxCell id="XSnT0I2E9s_Pdc4EKmwq-64" style="edgeStyle=orthogonalEdgeStyle;orthogonalLoop=1;jettySize=auto;html=1;entryX=1;entryY=0;entryDx=0;entryDy=0;curved=1;" edge="1" parent="1" source="DQgmJm5E7RuLA71w_BIT-6" target="XSnT0I2E9s_Pdc4EKmwq-2">
          <mxGeometry relative="1" as="geometry">
            <Array as="points">
              <mxPoint x="635" y="150" />
              <mxPoint x="390" y="150" />
              <mxPoint x="390" y="280" />
            </Array>
          </mxGeometry>
        </mxCell>
        <mxCell id="XSnT0I2E9s_Pdc4EKmwq-65" value="&amp;nbsp; 其他用戶的&amp;nbsp;&amp;nbsp;&lt;br&gt;詳細資料" style="edgeLabel;html=1;align=center;verticalAlign=middle;resizable=0;points=[];" vertex="1" connectable="0" parent="XSnT0I2E9s_Pdc4EKmwq-64">
          <mxGeometry x="-0.1654" y="4" relative="1" as="geometry">
            <mxPoint as="offset" />
          </mxGeometry>
        </mxCell>
        <mxCell id="DQgmJm5E7RuLA71w_BIT-6" value="&lt;b&gt;D1&lt;/b&gt;" style="html=1;dashed=0;whiteSpace=wrap;shape=mxgraph.dfd.dataStoreID;align=left;spacingLeft=3;points=[[0,0],[0.5,0],[1,0],[0,0.5],[1,0.5],[0,1],[0.5,1],[1,1]];" parent="1" vertex="1">
          <mxGeometry x="570" y="70" width="130" height="40" as="geometry" />
        </mxCell>
        <mxCell id="XSnT0I2E9s_Pdc4EKmwq-8" style="edgeStyle=orthogonalEdgeStyle;orthogonalLoop=1;jettySize=auto;html=1;entryX=0;entryY=0.5;entryDx=0;entryDy=0;curved=1;" edge="1" parent="1" source="DQgmJm5E7RuLA71w_BIT-10" target="oVbfc0MDXnG8jit9gMaF-4">
          <mxGeometry relative="1" as="geometry" />
        </mxCell>
        <mxCell id="XSnT0I2E9s_Pdc4EKmwq-9" value="&amp;nbsp; 用戶&amp;nbsp;&amp;nbsp;&lt;br&gt;&amp;nbsp; 資料&amp;nbsp;&amp;nbsp;" style="edgeLabel;html=1;align=center;verticalAlign=middle;resizable=0;points=[];" vertex="1" connectable="0" parent="XSnT0I2E9s_Pdc4EKmwq-8">
          <mxGeometry x="0.0031" y="-2" relative="1" as="geometry">
            <mxPoint as="offset" />
          </mxGeometry>
        </mxCell>
        <mxCell id="XSnT0I2E9s_Pdc4EKmwq-10" style="edgeStyle=orthogonalEdgeStyle;orthogonalLoop=1;jettySize=auto;html=1;entryX=0.25;entryY=0;entryDx=0;entryDy=0;curved=1;" edge="1" parent="1" source="DQgmJm5E7RuLA71w_BIT-10" target="XSnT0I2E9s_Pdc4EKmwq-2">
          <mxGeometry relative="1" as="geometry" />
        </mxCell>
        <mxCell id="DQgmJm5E7RuLA71w_BIT-10" value="用戶" style="html=1;dashed=0;whiteSpace=wrap;" parent="1" vertex="1">
          <mxGeometry x="130" y="50" width="100" height="50" as="geometry" />
        </mxCell>
        <mxCell id="DQgmJm5E7RuLA71w_BIT-11" value="1.0" style="swimlane;fontStyle=1;childLayout=stackLayout;horizontal=1;startSize=20;fillColor=#ffffff;horizontalStack=0;resizeParent=1;resizeParentMax=0;resizeLast=0;collapsible=0;marginBottom=0;swimlaneFillColor=#ffffff;rounded=1;fontFamily=Helvetica;verticalAlign=middle;" parent="1" vertex="1">
          <mxGeometry x="350" y="40" width="110" height="70" as="geometry" />
        </mxCell>
        <mxCell id="oVbfc0MDXnG8jit9gMaF-4" value="登入" style="text;html=1;strokeColor=none;fillColor=none;align=center;verticalAlign=middle;whiteSpace=wrap;rounded=0;" parent="DQgmJm5E7RuLA71w_BIT-11" vertex="1">
          <mxGeometry y="20" width="110" height="50" as="geometry" />
        </mxCell>
        <mxCell id="oVbfc0MDXnG8jit9gMaF-7" style="edgeStyle=orthogonalEdgeStyle;rounded=0;orthogonalLoop=1;jettySize=auto;html=1;exitX=0.5;exitY=1;exitDx=0;exitDy=0;" parent="DQgmJm5E7RuLA71w_BIT-11" source="oVbfc0MDXnG8jit9gMaF-4" target="oVbfc0MDXnG8jit9gMaF-4" edge="1">
          <mxGeometry relative="1" as="geometry" />
        </mxCell>
        <mxCell id="oVbfc0MDXnG8jit9gMaF-2" value="用戶詳細資料" style="text;html=1;strokeColor=none;fillColor=none;align=center;verticalAlign=middle;whiteSpace=wrap;rounded=0;" parent="1" vertex="1">
          <mxGeometry x="605" y="75" width="60" height="30" as="geometry" />
        </mxCell>
        <mxCell id="oVbfc0MDXnG8jit9gMaF-8" value="2.0" style="swimlane;fontStyle=1;childLayout=stackLayout;horizontal=1;startSize=20;fillColor=#ffffff;horizontalStack=0;resizeParent=1;resizeParentMax=0;resizeLast=0;collapsible=0;marginBottom=0;swimlaneFillColor=#ffffff;rounded=1;fontFamily=Helvetica;verticalAlign=middle;" parent="1" vertex="1">
          <mxGeometry x="260" y="160" width="110" height="70" as="geometry" />
        </mxCell>
        <mxCell id="oVbfc0MDXnG8jit9gMaF-10" style="edgeStyle=orthogonalEdgeStyle;rounded=0;orthogonalLoop=1;jettySize=auto;html=1;exitX=0.5;exitY=1;exitDx=0;exitDy=0;" parent="oVbfc0MDXnG8jit9gMaF-8" source="oVbfc0MDXnG8jit9gMaF-9" target="oVbfc0MDXnG8jit9gMaF-9" edge="1">
          <mxGeometry relative="1" as="geometry" />
        </mxCell>
        <mxCell id="oVbfc0MDXnG8jit9gMaF-9" value="選擇標籤" style="text;html=1;strokeColor=none;fillColor=none;align=center;verticalAlign=middle;whiteSpace=wrap;rounded=0;" parent="oVbfc0MDXnG8jit9gMaF-8" vertex="1">
          <mxGeometry y="20" width="110" height="50" as="geometry" />
        </mxCell>
        <mxCell id="oVbfc0MDXnG8jit9gMaF-13" style="edgeStyle=orthogonalEdgeStyle;orthogonalLoop=1;jettySize=auto;html=1;entryX=0.345;entryY=0;entryDx=0;entryDy=0;entryPerimeter=0;curved=1;exitX=0.92;exitY=1.01;exitDx=0;exitDy=0;exitPerimeter=0;" parent="1" source="DQgmJm5E7RuLA71w_BIT-10" target="oVbfc0MDXnG8jit9gMaF-8" edge="1">
          <mxGeometry relative="1" as="geometry" />
        </mxCell>
        <mxCell id="XSnT0I2E9s_Pdc4EKmwq-14" style="edgeStyle=orthogonalEdgeStyle;orthogonalLoop=1;jettySize=auto;html=1;entryX=1;entryY=0.25;entryDx=0;entryDy=0;curved=1;exitX=0.403;exitY=0.995;exitDx=0;exitDy=0;exitPerimeter=0;" edge="1" parent="1" source="oVbfc0MDXnG8jit9gMaF-15" target="XSnT0I2E9s_Pdc4EKmwq-4">
          <mxGeometry relative="1" as="geometry">
            <Array as="points">
              <mxPoint x="572" y="290" />
              <mxPoint x="280" y="290" />
            </Array>
          </mxGeometry>
        </mxCell>
        <mxCell id="XSnT0I2E9s_Pdc4EKmwq-15" value="&amp;nbsp; 用戶選擇&amp;nbsp;&amp;nbsp;&lt;br style=&quot;border-color: var(--border-color);&quot;&gt;的標籤" style="edgeLabel;html=1;align=center;verticalAlign=middle;resizable=0;points=[];" vertex="1" connectable="0" parent="XSnT0I2E9s_Pdc4EKmwq-14">
          <mxGeometry x="0.0092" y="-4" relative="1" as="geometry">
            <mxPoint as="offset" />
          </mxGeometry>
        </mxCell>
        <mxCell id="XSnT0I2E9s_Pdc4EKmwq-16" style="edgeStyle=orthogonalEdgeStyle;orthogonalLoop=1;jettySize=auto;html=1;entryX=1;entryY=0.5;entryDx=0;entryDy=0;exitX=0.692;exitY=1.021;exitDx=0;exitDy=0;exitPerimeter=0;curved=1;" edge="1" parent="1" source="oVbfc0MDXnG8jit9gMaF-15" target="XSnT0I2E9s_Pdc4EKmwq-4">
          <mxGeometry relative="1" as="geometry" />
        </mxCell>
        <mxCell id="XSnT0I2E9s_Pdc4EKmwq-17" value="&amp;nbsp; 所有用戶&amp;nbsp;&amp;nbsp;&lt;br&gt;的標籤" style="edgeLabel;html=1;align=center;verticalAlign=middle;resizable=0;points=[];" vertex="1" connectable="0" parent="XSnT0I2E9s_Pdc4EKmwq-16">
          <mxGeometry x="0.1221" y="-11" relative="1" as="geometry">
            <mxPoint as="offset" />
          </mxGeometry>
        </mxCell>
        <mxCell id="oVbfc0MDXnG8jit9gMaF-15" value="&lt;b&gt;D2&lt;/b&gt;" style="html=1;dashed=0;whiteSpace=wrap;shape=mxgraph.dfd.dataStoreID;align=left;spacingLeft=3;points=[[0,0],[0.5,0],[1,0],[0,0.5],[1,0.5],[0,1],[0.5,1],[1,1]];" parent="1" vertex="1">
          <mxGeometry x="520" y="205" width="130" height="40" as="geometry" />
        </mxCell>
        <mxCell id="oVbfc0MDXnG8jit9gMaF-16" value="標籤" style="text;html=1;strokeColor=none;fillColor=none;align=center;verticalAlign=middle;whiteSpace=wrap;rounded=0;" parent="1" vertex="1">
          <mxGeometry x="555" y="210" width="60" height="30" as="geometry" />
        </mxCell>
        <mxCell id="oVbfc0MDXnG8jit9gMaF-18" style="edgeStyle=orthogonalEdgeStyle;orthogonalLoop=1;jettySize=auto;html=1;entryX=0;entryY=0.5;entryDx=0;entryDy=0;curved=1;" parent="1" source="oVbfc0MDXnG8jit9gMaF-9" target="oVbfc0MDXnG8jit9gMaF-15" edge="1">
          <mxGeometry relative="1" as="geometry" />
        </mxCell>
        <mxCell id="oVbfc0MDXnG8jit9gMaF-20" value="&amp;nbsp; 被選擇的&amp;nbsp;&amp;nbsp;&lt;br&gt;標籤" style="edgeLabel;html=1;align=center;verticalAlign=middle;resizable=0;points=[];" parent="oVbfc0MDXnG8jit9gMaF-18" vertex="1" connectable="0">
          <mxGeometry x="-0.0632" y="6" relative="1" as="geometry">
            <mxPoint as="offset" />
          </mxGeometry>
        </mxCell>
        <mxCell id="XSnT0I2E9s_Pdc4EKmwq-2" value="3.0" style="swimlane;fontStyle=1;childLayout=stackLayout;horizontal=1;startSize=20;fillColor=#ffffff;horizontalStack=0;resizeParent=1;resizeParentMax=0;resizeLast=0;collapsible=0;marginBottom=0;swimlaneFillColor=#ffffff;rounded=1;fontFamily=Helvetica;verticalAlign=middle;" vertex="1" parent="1">
          <mxGeometry x="200" y="280" width="110" height="70" as="geometry" />
        </mxCell>
        <mxCell id="XSnT0I2E9s_Pdc4EKmwq-3" style="edgeStyle=orthogonalEdgeStyle;rounded=0;orthogonalLoop=1;jettySize=auto;html=1;exitX=0.5;exitY=1;exitDx=0;exitDy=0;" edge="1" parent="XSnT0I2E9s_Pdc4EKmwq-2" source="XSnT0I2E9s_Pdc4EKmwq-4" target="XSnT0I2E9s_Pdc4EKmwq-4">
          <mxGeometry relative="1" as="geometry" />
        </mxCell>
        <mxCell id="XSnT0I2E9s_Pdc4EKmwq-4" value="配對用戶" style="text;html=1;strokeColor=none;fillColor=none;align=center;verticalAlign=middle;whiteSpace=wrap;rounded=0;" vertex="1" parent="XSnT0I2E9s_Pdc4EKmwq-2">
          <mxGeometry y="20" width="110" height="50" as="geometry" />
        </mxCell>
        <mxCell id="XSnT0I2E9s_Pdc4EKmwq-6" style="edgeStyle=orthogonalEdgeStyle;orthogonalLoop=1;jettySize=auto;html=1;entryX=0;entryY=0.5;entryDx=0;entryDy=0;curved=1;" edge="1" parent="1" source="oVbfc0MDXnG8jit9gMaF-4" target="DQgmJm5E7RuLA71w_BIT-6">
          <mxGeometry relative="1" as="geometry" />
        </mxCell>
        <mxCell id="XSnT0I2E9s_Pdc4EKmwq-7" value="&amp;nbsp; 用戶&amp;nbsp;&amp;nbsp;&lt;br&gt;&amp;nbsp; 資料&amp;nbsp;&amp;nbsp;" style="edgeLabel;html=1;align=center;verticalAlign=middle;resizable=0;points=[];" vertex="1" connectable="0" parent="XSnT0I2E9s_Pdc4EKmwq-6">
          <mxGeometry x="-0.1687" y="-2" relative="1" as="geometry">
            <mxPoint as="offset" />
          </mxGeometry>
        </mxCell>
        <mxCell id="XSnT0I2E9s_Pdc4EKmwq-38" style="edgeStyle=orthogonalEdgeStyle;orthogonalLoop=1;jettySize=auto;html=1;entryX=0;entryY=0.75;entryDx=0;entryDy=0;curved=1;" edge="1" parent="1" source="XSnT0I2E9s_Pdc4EKmwq-18" target="XSnT0I2E9s_Pdc4EKmwq-27">
          <mxGeometry relative="1" as="geometry" />
        </mxCell>
        <mxCell id="XSnT0I2E9s_Pdc4EKmwq-40" value="&amp;nbsp; 潛在危險字眼的&amp;nbsp;&amp;nbsp;&lt;br&gt;對話用戶" style="edgeLabel;html=1;align=center;verticalAlign=middle;resizable=0;points=[];" vertex="1" connectable="0" parent="XSnT0I2E9s_Pdc4EKmwq-38">
          <mxGeometry y="-10" relative="1" as="geometry">
            <mxPoint as="offset" />
          </mxGeometry>
        </mxCell>
        <mxCell id="XSnT0I2E9s_Pdc4EKmwq-18" value="4.0" style="swimlane;fontStyle=1;childLayout=stackLayout;horizontal=1;startSize=20;fillColor=#ffffff;horizontalStack=0;resizeParent=1;resizeParentMax=0;resizeLast=0;collapsible=0;marginBottom=0;swimlaneFillColor=#ffffff;rounded=1;fontFamily=Helvetica;verticalAlign=middle;" vertex="1" parent="1">
          <mxGeometry x="670" y="250" width="120" height="80" as="geometry" />
        </mxCell>
        <mxCell id="XSnT0I2E9s_Pdc4EKmwq-19" style="edgeStyle=orthogonalEdgeStyle;rounded=0;orthogonalLoop=1;jettySize=auto;html=1;exitX=0.5;exitY=1;exitDx=0;exitDy=0;" edge="1" parent="XSnT0I2E9s_Pdc4EKmwq-18" source="XSnT0I2E9s_Pdc4EKmwq-20" target="XSnT0I2E9s_Pdc4EKmwq-20">
          <mxGeometry relative="1" as="geometry" />
        </mxCell>
        <mxCell id="XSnT0I2E9s_Pdc4EKmwq-20" value="檢視聊天&lt;br&gt;紀錄" style="text;html=1;strokeColor=none;fillColor=none;align=center;verticalAlign=middle;whiteSpace=wrap;rounded=0;" vertex="1" parent="XSnT0I2E9s_Pdc4EKmwq-18">
          <mxGeometry y="20" width="120" height="60" as="geometry" />
        </mxCell>
        <mxCell id="XSnT0I2E9s_Pdc4EKmwq-36" style="edgeStyle=orthogonalEdgeStyle;orthogonalLoop=1;jettySize=auto;html=1;entryX=0.25;entryY=1;entryDx=0;entryDy=0;curved=1;exitX=0.753;exitY=0.02;exitDx=0;exitDy=0;exitPerimeter=0;" edge="1" parent="1" source="XSnT0I2E9s_Pdc4EKmwq-21" target="XSnT0I2E9s_Pdc4EKmwq-20">
          <mxGeometry relative="1" as="geometry" />
        </mxCell>
        <mxCell id="XSnT0I2E9s_Pdc4EKmwq-37" value="&amp;nbsp; 聊天&amp;nbsp;&amp;nbsp;&lt;br&gt;&amp;nbsp; 紀錄&amp;nbsp;&amp;nbsp;" style="edgeLabel;html=1;align=center;verticalAlign=middle;resizable=0;points=[];" vertex="1" connectable="0" parent="XSnT0I2E9s_Pdc4EKmwq-36">
          <mxGeometry x="0.0229" y="2" relative="1" as="geometry">
            <mxPoint as="offset" />
          </mxGeometry>
        </mxCell>
        <mxCell id="XSnT0I2E9s_Pdc4EKmwq-21" value="&lt;b&gt;D3&lt;/b&gt;" style="html=1;dashed=0;whiteSpace=wrap;shape=mxgraph.dfd.dataStoreID;align=left;spacingLeft=3;points=[[0,0],[0.5,0],[1,0],[0,0.5],[1,0.5],[0,1],[0.5,1],[1,1]];" vertex="1" parent="1">
          <mxGeometry x="390" y="420" width="130" height="40" as="geometry" />
        </mxCell>
        <mxCell id="XSnT0I2E9s_Pdc4EKmwq-22" value="聊天訊息" style="text;html=1;strokeColor=none;fillColor=none;align=center;verticalAlign=middle;whiteSpace=wrap;rounded=0;" vertex="1" parent="1">
          <mxGeometry x="425" y="425" width="60" height="30" as="geometry" />
        </mxCell>
        <mxCell id="XSnT0I2E9s_Pdc4EKmwq-24" style="edgeStyle=orthogonalEdgeStyle;orthogonalLoop=1;jettySize=auto;html=1;entryX=0.308;entryY=0.05;entryDx=0;entryDy=0;entryPerimeter=0;exitX=0.75;exitY=1;exitDx=0;exitDy=0;curved=1;" edge="1" parent="1" source="XSnT0I2E9s_Pdc4EKmwq-4" target="XSnT0I2E9s_Pdc4EKmwq-21">
          <mxGeometry relative="1" as="geometry" />
        </mxCell>
        <mxCell id="XSnT0I2E9s_Pdc4EKmwq-25" value="聊天&lt;br&gt;&amp;nbsp; 紀錄&amp;nbsp;&amp;nbsp;" style="edgeLabel;html=1;align=center;verticalAlign=middle;resizable=0;points=[];" vertex="1" connectable="0" parent="XSnT0I2E9s_Pdc4EKmwq-24">
          <mxGeometry x="0.0018" y="-2" relative="1" as="geometry">
            <mxPoint as="offset" />
          </mxGeometry>
        </mxCell>
        <mxCell id="XSnT0I2E9s_Pdc4EKmwq-27" value="適合的輔導機構" style="html=1;dashed=0;whiteSpace=wrap;" vertex="1" parent="1">
          <mxGeometry x="850" y="100" width="110" height="50" as="geometry" />
        </mxCell>
        <mxCell id="XSnT0I2E9s_Pdc4EKmwq-30" style="edgeStyle=orthogonalEdgeStyle;orthogonalLoop=1;jettySize=auto;html=1;entryX=0;entryY=0.5;entryDx=0;entryDy=0;curved=1;" edge="1" parent="1" source="XSnT0I2E9s_Pdc4EKmwq-28" target="XSnT0I2E9s_Pdc4EKmwq-4">
          <mxGeometry relative="1" as="geometry">
            <Array as="points">
              <mxPoint x="170" y="270" />
              <mxPoint x="170" y="325" />
            </Array>
          </mxGeometry>
        </mxCell>
        <mxCell id="XSnT0I2E9s_Pdc4EKmwq-28" value="其他用戶" style="html=1;dashed=0;whiteSpace=wrap;" vertex="1" parent="1">
          <mxGeometry x="40" y="240" width="100" height="50" as="geometry" />
        </mxCell>
        <mxCell id="XSnT0I2E9s_Pdc4EKmwq-46" value="5.0" style="swimlane;fontStyle=1;childLayout=stackLayout;horizontal=1;startSize=20;fillColor=#ffffff;horizontalStack=0;resizeParent=1;resizeParentMax=0;resizeLast=0;collapsible=0;marginBottom=0;swimlaneFillColor=#ffffff;rounded=1;fontFamily=Helvetica;verticalAlign=middle;" vertex="1" parent="1">
          <mxGeometry x="840" y="400" width="110" height="70" as="geometry" />
        </mxCell>
        <mxCell id="XSnT0I2E9s_Pdc4EKmwq-48" value="提醒用戶" style="text;html=1;strokeColor=none;fillColor=none;align=center;verticalAlign=middle;whiteSpace=wrap;rounded=0;" vertex="1" parent="XSnT0I2E9s_Pdc4EKmwq-46">
          <mxGeometry y="20" width="110" height="50" as="geometry" />
        </mxCell>
        <mxCell id="XSnT0I2E9s_Pdc4EKmwq-55" style="edgeStyle=orthogonalEdgeStyle;orthogonalLoop=1;jettySize=auto;html=1;entryX=0.645;entryY=-0.029;entryDx=0;entryDy=0;curved=1;exitX=0.683;exitY=1.02;exitDx=0;exitDy=0;exitPerimeter=0;entryPerimeter=0;" edge="1" parent="1" source="XSnT0I2E9s_Pdc4EKmwq-20" target="XSnT0I2E9s_Pdc4EKmwq-46">
          <mxGeometry relative="1" as="geometry">
            <mxPoint x="800" y="300" as="sourcePoint" />
            <mxPoint x="850" y="148" as="targetPoint" />
          </mxGeometry>
        </mxCell>
        <mxCell id="XSnT0I2E9s_Pdc4EKmwq-56" value="&amp;nbsp; 潛在危險字眼的&amp;nbsp;&amp;nbsp;&lt;br&gt;對話用戶" style="edgeLabel;html=1;align=center;verticalAlign=middle;resizable=0;points=[];" vertex="1" connectable="0" parent="XSnT0I2E9s_Pdc4EKmwq-55">
          <mxGeometry y="-10" relative="1" as="geometry">
            <mxPoint as="offset" />
          </mxGeometry>
        </mxCell>
        <mxCell id="XSnT0I2E9s_Pdc4EKmwq-57" value="level 0 資料流程圖" style="text;html=1;align=center;verticalAlign=middle;resizable=0;points=[];autosize=1;strokeColor=none;fillColor=none;" vertex="1" parent="1">
          <mxGeometry x="10" y="8" width="120" height="30" as="geometry" />
        </mxCell>
        <mxCell id="XSnT0I2E9s_Pdc4EKmwq-58" value="&lt;font style=&quot;font-size: 26px;&quot;&gt;MoodsChat 系統&lt;/font&gt;" style="html=1;dashed=0;whiteSpace=wrap;" vertex="1" parent="1">
          <mxGeometry x="380" y="-450" width="250" height="90" as="geometry" />
        </mxCell>
        <mxCell id="XSnT0I2E9s_Pdc4EKmwq-59" value="&lt;font style=&quot;font-size: 24px;&quot;&gt;用戶&lt;/font&gt;" style="html=1;dashed=0;whiteSpace=wrap;" vertex="1" parent="1">
          <mxGeometry x="150" y="-620" width="160" height="80" as="geometry" />
        </mxCell>
        <mxCell id="XSnT0I2E9s_Pdc4EKmwq-60" value="&lt;font style=&quot;font-size: 24px;&quot;&gt;機構&lt;/font&gt;" style="html=1;dashed=0;whiteSpace=wrap;" vertex="1" parent="1">
          <mxGeometry x="710" y="-620" width="160" height="80" as="geometry" />
        </mxCell>
        <mxCell id="XSnT0I2E9s_Pdc4EKmwq-61" style="edgeStyle=orthogonalEdgeStyle;orthogonalLoop=1;jettySize=auto;html=1;entryX=0.362;entryY=-0.03;entryDx=0;entryDy=0;entryPerimeter=0;curved=1;" edge="1" parent="1" source="XSnT0I2E9s_Pdc4EKmwq-59" target="XSnT0I2E9s_Pdc4EKmwq-58">
          <mxGeometry relative="1" as="geometry" />
        </mxCell>
        <mxCell id="XSnT0I2E9s_Pdc4EKmwq-62" value="&lt;font style=&quot;font-size: 20px;&quot;&gt;尋找&lt;br&gt;&amp;nbsp; 用戶聊天&amp;nbsp;&amp;nbsp;&lt;/font&gt;" style="edgeLabel;html=1;align=center;verticalAlign=middle;resizable=0;points=[];" vertex="1" connectable="0" parent="XSnT0I2E9s_Pdc4EKmwq-61">
          <mxGeometry x="-0.3345" y="-19" relative="1" as="geometry">
            <mxPoint as="offset" />
          </mxGeometry>
        </mxCell>
        <mxCell id="XSnT0I2E9s_Pdc4EKmwq-63" style="edgeStyle=orthogonalEdgeStyle;orthogonalLoop=1;jettySize=auto;html=1;entryX=0.586;entryY=1.081;entryDx=0;entryDy=0;entryPerimeter=0;curved=1;" edge="1" parent="1" source="XSnT0I2E9s_Pdc4EKmwq-58" target="XSnT0I2E9s_Pdc4EKmwq-59">
          <mxGeometry relative="1" as="geometry" />
        </mxCell>
      </root>
    </mxGraphModel>
  </diagram>
</mxfile>
